<svg xmlns="http://www.w3.org/2000/svg" viewBox="0 0 130 105"><path fill="#97DF73" fill-rule="nonzero" d="M8.43 40.33C15.44 29.75 30.58 23.68 40.82 26.93C44.36 28.05 46.83 30.11 48.16 32.74C48.89 34.21 49.95 35.46 51.29 36.48C53.09 37.84 57.03 35.79 57.15 33.45C57.23 31.78 56.97 30.18 56.44 28.70C55.25 25.32 55.73 21.12 58.28 16.63C62.83 8.58 73.24 2.10 82.99 1.20C96.00 0.00 103.05 8.38 98.60 18.87C97.06 22.50 94.37 25.87 91.02 28.67C89.16 30.23 87.55 31.91 86.23 33.67C84.45 36.04 86.88 37.90 89.81 36.47C91.91 35.45 93.93 34.18 95.81 32.78C100.08 29.60 105.36 27.23 110.87 26.37C120.81 24.82 128.54 29.07 129.32 36.45C130.34 46.28 119.57 57.51 106.57 60.76C102.08 61.88 97.96 61.88 94.57 60.99C92.72 60.49 90.70 60.28 88.58 60.34C85.64 60.43 83.10 63.63 84.81 65.11C86.02 66.15 87.53 66.98 89.21 67.59C93.06 69.00 95.82 71.74 96.71 75.70C98.27 82.78 92.67 91.88 83.38 97.35C71.00 104.62 57.30 103.20 53.71 94.70C52.49 91.78 52.63 88.42 53.88 85.05C54.58 83.18 54.91 81.36 54.90 79.65C54.88 77.34 50.95 77.46 49.06 79.79C47.71 81.45 46.63 83.23 45.80 85.00C43.87 89.08 40.33 93.13 35.34 96.44C26.40 102.38 15.19 103.75 8.68 99.74C0.00 94.41 2.32 82.29 13.09 73.81C16.81 70.86 21.03 68.78 25.19 67.60C27.51 66.94 29.77 66.04 31.92 64.91C34.82 63.39 34.82 60.25 31.97 60.24C29.93 60.22 27.75 60.50 25.55 60.98C20.51 62.07 15.56 61.85 11.61 59.94C4.50 56.52 3.17 48.27 8.44 40.34L8.43 40.33Z"/></svg>