<svg xmlns="http://www.w3.org/2000/svg" viewBox="0 0 220 220"><path fill="#97DF73" d="M140.0 55.5 C139.9 52.3 139.6 49.0 139.1 45.9 C138.6 42.7 138.0 39.6 137.1 36.6 C136.3 33.7 135.4 31.0 134.1 28.2 C132.8 25.5 131.1 22.4 129.6 20.1 C128.0 17.9 126.5 16.1 124.8 14.5 C123.1 12.9 121.3 11.5 119.4 10.5 C117.6 9.5 115.7 8.8 113.7 8.4 C111.6 8.0 109.2 7.9 107.1 8.2 C104.9 8.6 102.7 9.4 100.6 10.5 C98.5 11.7 96.5 13.2 94.6 15.1 C92.7 17.0 90.9 19.3 89.3 21.8 C87.7 24.3 86.3 27.2 85.1 30.2 C83.8 33.3 82.8 36.6 82.0 40.0 C81.2 43.4 80.6 47.1 80.3 50.7 C80.0 54.3 79.9 58.0 80.1 61.7 C80.3 65.4 82.7 71.7 81.4 73.0 C80.0 74.2 75.3 70.3 71.9 69.2 C68.6 68.1 64.7 67.1 61.1 66.4 C57.4 65.7 53.5 65.3 50.0 65.1 C46.6 64.9 43.6 65.0 40.6 65.3 C37.5 65.5 34.7 65.9 31.8 66.6 C28.9 67.3 25.8 68.4 23.2 69.6 C20.6 70.8 18.2 72.3 16.3 73.9 C14.4 75.4 13.1 76.7 11.9 78.6 C10.6 80.6 9.4 83.1 8.9 85.6 C8.4 88.0 8.4 90.6 8.9 93.2 C9.4 95.8 10.4 98.5 11.8 101.1 C13.3 103.7 15.3 106.3 17.6 108.7 C19.9 111.1 22.7 113.5 25.8 115.7 C28.9 117.8 32.4 119.8 36.0 121.5 C39.6 123.2 43.7 124.7 47.5 125.9 C51.3 127.0 58.0 126.6 58.8 128.4 C59.7 130.2 54.5 133.8 52.5 136.6 C50.6 139.5 48.7 142.9 47.3 145.8 C45.9 148.7 44.9 151.1 43.9 154.0 C43.0 156.9 42.2 160.2 41.7 163.1 C41.3 166.0 41.2 169.1 41.4 171.6 C41.5 174.1 41.9 176.1 42.6 178.2 C43.3 180.3 44.3 182.6 45.6 184.3 C46.9 186.1 48.3 187.6 50.2 188.8 C52.2 190.0 54.7 191.0 57.0 191.5 C59.4 192.0 61.7 192.1 64.3 191.8 C66.8 191.6 69.5 191.0 72.2 190.1 C74.9 189.2 77.8 187.9 80.5 186.4 C83.2 184.9 86.0 183.0 88.7 180.9 C91.4 178.8 94.0 176.5 96.4 173.9 C98.9 171.4 101.1 168.8 103.3 165.8 C105.5 162.8 107.4 155.7 109.5 155.9 C111.6 156.2 113.4 163.4 116.0 167.1 C118.6 170.8 121.8 174.7 125.0 178.0 C128.2 181.4 131.8 184.5 135.4 187.1 C138.9 189.7 142.7 192.0 146.4 193.6 C150.0 195.3 153.9 196.5 157.3 197.2 C160.6 197.9 164.1 197.7 166.4 197.6 C168.7 197.5 169.8 197.0 171.2 196.6 C172.6 196.1 173.7 195.6 174.8 195.0 C176.0 194.3 176.9 193.7 178.0 192.7 C179.0 191.8 180.1 190.8 181.1 189.2 C182.1 187.7 183.3 185.5 184.0 183.4 C184.7 181.2 185.2 178.8 185.4 176.3 C185.6 173.8 185.5 171.1 185.2 168.3 C184.8 165.5 184.2 162.6 183.4 159.7 C182.6 156.8 181.4 153.8 180.1 150.8 C178.8 147.9 177.2 144.9 175.5 142.0 C173.7 139.2 171.8 136.3 169.6 133.6 C167.5 130.9 162.4 127.6 162.8 125.9 C163.2 124.1 169.0 124.2 171.9 123.2 C174.8 122.1 177.5 121.0 180.2 119.6 C183.0 118.2 186.1 116.3 188.4 114.6 C190.8 112.9 192.7 111.3 194.5 109.5 C196.3 107.7 197.9 105.8 199.1 103.9 C200.4 102.0 201.4 100.2 202.2 98.1 C202.9 96.1 203.4 93.7 203.5 91.6 C203.6 89.6 203.4 88.0 202.9 86.1 C202.3 84.3 201.3 82.2 200.0 80.5 C198.7 78.8 197.0 77.1 195.1 75.7 C193.2 74.3 191.0 73.1 188.4 72.0 C185.7 71.0 182.4 70.0 179.1 69.4 C175.8 68.8 172.0 68.6 168.6 68.5 C165.1 68.5 161.9 68.8 158.5 69.3 C155.1 69.7 151.8 70.4 148.4 71.4 C145.0 72.4 139.6 76.1 138.2 75.1 C136.7 74.0 139.4 68.6 139.7 65.3 C140.0 62.1 140.1 58.8 140.0 55.5 Z"/></svg>