<svg xmlns="http://www.w3.org/2000/svg" viewBox="0 0 236 118"><path fill="#64DD6C" fill-rule="nonzero" d="M231.69 48.13C235.78 38.16 223.20 31.84 203.57 33.97C203.57 33.97 203.33 33.99 202.84 34.05C200.53 34.32 198.22 34.69 195.95 35.18C192.86 35.77 180.94 39.24 168.26 43.03C159.95 45.51 155.15 41.52 161.89 37.76C172.21 32.00 181.74 26.57 183.72 25.07C185.22 23.97 186.60 22.82 187.81 21.63C188.07 21.39 188.18 21.26 188.18 21.26C198.15 11.13 192.11 2.08 174.72 1.04C157.31 0.00 135.13 7.37 125.16 17.51C125.16 17.51 125.03 17.64 124.81 17.89C123.67 19.07 122.78 20.26 122.07 21.39C121.01 22.97 119.41 28.87 117.90 35.14C116.91 39.24 105.24 42.25 102.46 39.11C98.24 34.31 94.08 29.89 92.43 29.02C91.29 28.35 89.95 27.74 88.40 27.24C88.09 27.13 87.92 27.09 87.92 27.09C74.45 22.97 51.47 27.18 36.63 36.49C21.77 45.81 20.65 56.70 34.12 60.82C34.12 60.82 34.28 60.87 34.62 60.97C36.24 61.43 37.97 61.78 39.82 62.01C42.26 62.38 53.19 62.56 64.94 62.65C72.63 62.71 70.23 68.54 61.77 70.37C48.85 73.16 36.74 75.85 33.73 76.83C31.51 77.52 29.29 78.30 27.13 79.17C26.69 79.35 26.46 79.45 26.46 79.45C8.18 87.03 0.00 98.69 8.23 105.49C16.46 112.29 37.95 111.65 56.24 104.07C56.24 104.07 56.46 103.97 56.91 103.79C59.03 102.88 61.03 101.91 62.85 100.91C65.42 99.58 73.78 93.79 82.56 87.57C88.29 83.51 98.50 84.10 96.04 88.37C92.28 94.88 88.94 100.99 88.76 102.45C88.53 103.55 88.50 104.62 88.72 105.68C88.76 105.90 88.79 106.00 88.79 106.00C90.95 114.81 108.89 117.80 128.81 112.67C148.76 107.55 163.16 96.27 161.00 87.46C161.00 87.46 160.98 87.35 160.90 87.15C160.60 86.12 160.08 85.18 159.37 84.33C158.52 83.12 152.76 79.35 146.43 75.42C142.30 72.84 150.99 67.39 157.94 68.20C168.54 69.45 178.59 70.52 181.48 70.47C183.57 70.47 185.74 70.35 188.05 70.13C188.52 70.09 188.76 70.06 188.76 70.06C208.39 67.91 227.63 58.11 231.72 48.15L231.69 48.13Z"/></svg>