<svg xmlns="http://www.w3.org/2000/svg" viewBox="0 0 1015 252"><path fill="#FFFFFF" fill-rule="nonzero" d="M560.02 130.75L560.02 119.20L585.35 119.20L585.35 198.62C585.35 233.25 569.84 251.00 534.34 251.00C503.84 251.00 486.43 240.14 482.47 217.40L510.73 217.40C512.28 226.01 521.93 231.36 534.17 231.36C551.92 231.36 560.02 220.84 560.02 201.72L560.02 197.76C552.43 206.37 541.23 211.54 527.45 211.54C500.05 211.54 480.58 191.21 480.58 164.34C480.58 137.12 500.05 116.79 527.45 116.79C541.24 116.79 552.43 122.13 560.02 130.75M506.77 164.34C506.77 178.98 518.14 189.67 533.30 189.67C548.30 189.67 560.02 178.98 560.02 164.34C560.02 149.52 548.30 138.50 533.30 138.50C517.97 138.50 506.77 149.52 506.77 164.34Z"/><path fill="#FFFFFF" fill-rule="nonzero" d="M626.52 119.20L626.52 144.18C639.10 127.99 653.40 117.13 673.05 116.79L673.05 144.18C654.09 144.18 639.44 149.35 626.52 166.92L626.52 213.96L601.19 213.96L601.19 119.20L626.52 119.20Z"/><path fill="#FFFFFF" fill-rule="nonzero" d="M679.42 166.40C679.42 137.98 702.17 116.79 732.33 116.79C762.49 116.79 785.07 137.97 785.07 166.40C785.07 195.00 762.49 216.37 732.33 216.37C702.18 216.37 679.42 195.01 679.42 166.40M759.04 166.40C759.04 150.21 747.67 138.50 732.33 138.50C716.65 138.50 705.62 150.21 705.62 166.40C705.62 182.77 716.65 194.66 732.33 194.66C747.67 194.66 759.04 182.77 759.04 166.40Z"/><path fill="#FFFFFF" fill-rule="nonzero" d="M844.93 216.37C815.46 216.37 795.47 198.11 795.47 170.54L795.47 119.20L820.80 119.20L820.80 167.27C820.80 181.91 829.59 192.59 844.92 192.59C860.09 192.59 869.05 181.91 869.05 167.27L869.05 119.20L894.38 119.20L894.38 170.54C894.38 198.11 874.22 216.37 844.92 216.37L844.93 216.37Z"/><path fill="#FFFFFF" fill-rule="nonzero" d="M1015.00 166.75C1015.00 195.18 995.70 216.37 969.67 216.37C955.72 216.37 943.82 210.34 935.56 200.18L935.56 248.41L910.23 248.41L910.23 119.20L935.56 119.20L935.56 133.16C943.82 122.82 955.72 116.79 969.67 116.79C995.70 116.79 1015.00 138.15 1015.00 166.76L1015.00 166.75M935.56 166.75C935.56 182.08 947.27 193.11 962.27 193.11C977.60 193.11 988.98 182.08 988.98 166.75C988.98 151.25 977.60 140.05 962.27 140.05C947.27 140.05 935.56 151.42 935.56 166.75Z"/><path fill="#FFFFFF" fill-rule="nonzero" d="M42.91 213.96L0.00 119.20L28.77 119.20L59.11 189.49L89.61 119.20L117.53 119.20L74.45 213.96L42.91 213.96Z"/><path fill="#FFFFFF" fill-rule="nonzero" d="M151.21 119.20L151.21 213.96L126.57 213.96L126.57 119.20L151.21 119.20Z"/><path fill="#FFFFFF" fill-rule="nonzero" d="M203.58 93.36L203.58 119.20L238.39 119.20L238.39 140.05L203.58 140.05L203.58 175.88C203.58 189.49 209.09 195.35 225.30 195.35C233.40 195.35 238.22 194.83 245.98 194.14L245.98 214.99C239.60 215.68 232.70 216.37 225.98 216.37C190.31 216.37 178.25 204.31 178.25 170.02L178.25 140.04L161.88 140.04L161.88 119.20L178.25 119.20L178.25 99.10L203.58 93.36Z"/><path fill="#FFFFFF" fill-rule="nonzero" d="M250.92 166.40C250.92 137.98 270.40 116.79 297.80 116.79C312.79 116.79 323.47 122.64 330.36 132.64L330.36 119.20L355.69 119.20L355.69 213.96L330.36 213.96L330.36 200.35C323.64 210.17 312.79 216.37 297.80 216.37C270.40 216.37 250.92 195.01 250.92 166.40M330.36 166.40C330.36 151.07 318.64 140.05 303.65 140.05C288.32 140.05 277.11 151.07 277.11 166.40C277.11 181.91 288.32 193.11 303.65 193.11C318.64 193.11 330.36 181.91 330.36 166.40Z"/><path fill="#FFFFFF" fill-rule="nonzero" d="M396.86 119.20L396.86 144.18C409.44 127.99 423.75 117.13 443.39 116.79L443.39 144.18C424.44 144.18 409.79 149.35 396.86 166.92L396.86 213.96L371.53 213.96L371.53 119.20L396.86 119.20Z"/><path fill="#97DF73" fill-rule="nonzero" d="M79.28 40.24C86.29 29.66 101.43 23.59 111.67 26.84C115.21 27.96 117.68 30.02 119.01 32.66C119.74 34.12 120.80 35.38 122.14 36.40C123.94 37.76 127.88 35.70 128.00 33.37C128.08 31.69 127.82 30.09 127.29 28.62C126.10 25.23 126.58 21.03 129.13 16.54C133.68 8.49 144.09 2.01 153.84 1.12C166.85 -0.09 173.90 8.29 169.45 18.78C167.91 22.41 165.22 25.78 161.87 28.58C160.01 30.14 158.40 31.82 157.08 33.59C155.30 35.95 157.73 37.82 160.66 36.39C162.76 35.36 164.78 34.09 166.66 32.70C170.94 29.52 176.21 27.14 181.72 26.28C191.66 24.73 199.39 28.98 200.17 36.36C201.19 46.20 190.42 57.43 177.42 60.68C172.93 61.79 168.81 61.79 165.42 60.90C163.57 60.41 161.55 60.20 159.43 60.26C156.49 60.34 153.95 63.54 155.67 65.02C156.87 66.07 158.38 66.89 160.06 67.51C163.91 68.92 166.67 71.65 167.56 75.61C169.12 82.70 163.52 91.79 154.23 97.26C141.85 104.54 128.15 103.11 124.56 94.61C123.34 91.69 123.48 88.34 124.73 84.97C125.43 83.09 125.77 81.28 125.75 79.56C125.74 77.26 121.80 77.38 119.92 79.70C118.57 81.37 117.48 83.14 116.65 84.92C114.72 88.99 111.18 93.05 106.19 96.35C97.25 102.29 86.04 103.66 79.53 99.65C70.85 94.32 73.17 82.20 83.94 73.72C87.67 70.78 91.88 68.70 96.04 67.51C98.36 66.86 100.63 65.95 102.78 64.82C105.67 63.31 105.68 60.17 102.82 60.15C100.79 60.14 98.60 60.41 96.40 60.89C91.37 61.99 86.42 61.77 82.46 59.86C75.35 56.43 74.02 48.18 79.29 40.25L79.28 40.24Z"/><path fill="#97DF73" fill-rule="nonzero" d="M433.12 189.03L454.72 189.03L454.72 214.00L433.12 214.00L433.12 189.03Z"/></svg>