<svg xmlns="http://www.w3.org/2000/svg" viewBox="0 0 1210 138"><path fill="#FFFFFF" fill-rule="nonzero" d="M108.18 117.33L129.06 17.05L159.19 17.05L138.31 117.33L108.18 117.33Z"/><path fill="#FFFFFF" fill-rule="nonzero" d="M197.61 42.97L189.56 81.00C187.85 89.02 191.11 91.23 199.15 91.23L208.74 91.23L203.10 117.31L189.23 117.31C171.76 117.31 154.64 107.76 160.31 81.15L167.33 48.41L172.97 22.49L177.72 -0.02L206.86 -0.02L203.10 17.03L222.95 17.03L217.31 42.95L197.63 42.95L197.61 42.97Z"/><path fill="#FFFFFF" fill-rule="nonzero" d="M309.89 17.05L340.02 17.05L318.28 117.31L291.75 117.31L292.94 111.86C285.23 116.98 276.51 119.35 267.09 119.35C238.67 119.35 220.53 98.89 220.53 72.12C220.53 39.20 245.19 14.99 279.06 14.99C290.18 14.99 300.80 18.05 308.15 25.05L309.87 17.03L309.89 17.05M300.65 64.29C300.65 50.65 291.06 41.43 278.23 41.43C262.30 41.43 251.02 54.21 251.02 69.22C251.02 82.53 259.75 92.41 273.61 92.41C289.70 92.41 300.65 79.11 300.65 64.27L300.65 64.29Z"/><path fill="#FFFFFF" fill-rule="nonzero" d="M415.16 15.86L409.00 44.51L407.62 44.51C396.67 44.51 379.89 49.11 373.72 76.90L364.82 117.31L335.38 117.31L357.11 17.05L384.32 17.05L381.25 30.85C388.44 21.48 399.22 15.84 413.43 15.84L415.14 15.84L415.16 15.86Z"/><path fill="#FFFFFF" fill-rule="nonzero" d="M86.39 17.05C75.40 57.85 52.40 78.02 36.63 85.25L52.91 17.05L22.24 17.05L0.00 117.35L18.64 117.35C21.66 117.35 92.84 116.26 116.39 20.59L117.16 17.03L86.39 17.03L86.39 17.05Z"/><path fill="#64DD6C" fill-rule="nonzero" d="M633.29 56.66C637.39 46.70 624.80 40.37 605.17 42.51C605.17 42.51 604.93 42.52 604.44 42.58C602.13 42.86 599.83 43.23 597.55 43.71C594.46 44.31 582.54 47.77 569.86 51.56C561.56 54.05 556.75 50.06 563.49 46.29C573.81 40.54 583.34 35.10 585.32 33.60C586.83 32.51 588.20 31.36 589.42 30.17C589.68 29.93 589.79 29.80 589.79 29.80C599.75 19.67 593.72 10.61 576.32 9.57C558.91 8.53 536.73 15.90 526.77 26.05C526.77 26.05 526.64 26.18 526.41 26.42C525.28 27.61 524.38 28.79 523.68 29.93C522.61 31.50 521.01 37.40 519.50 43.67C518.52 47.77 506.84 50.78 504.07 47.65C499.84 42.84 495.69 38.42 494.03 37.55C492.89 36.88 491.55 36.27 490.01 35.77C489.69 35.66 489.52 35.62 489.52 35.62C476.06 31.50 453.08 35.72 438.23 45.03C423.37 54.34 422.26 65.23 435.72 69.35C435.72 69.35 435.89 69.41 436.22 69.50C437.84 69.96 439.58 70.32 441.42 70.54C443.86 70.91 454.79 71.10 466.54 71.19C474.23 71.24 471.83 77.07 463.38 78.91C450.45 81.69 438.35 84.38 435.33 85.36C433.11 86.05 430.90 86.83 428.74 87.70C428.29 87.89 428.07 87.98 428.07 87.98C409.78 95.57 401.60 107.22 409.83 114.03C418.07 120.82 439.56 120.19 457.84 112.60C457.84 112.60 458.07 112.51 458.51 112.32C460.64 111.41 462.63 110.45 464.46 109.45C467.03 108.11 475.39 102.32 484.16 96.11C489.89 92.04 500.10 92.64 497.64 96.90C493.88 103.42 490.55 109.52 490.36 110.99C490.14 112.08 490.10 113.16 490.32 114.21C490.36 114.44 490.40 114.53 490.40 114.53C492.56 123.34 510.49 126.33 530.42 121.21C550.36 116.09 564.76 104.81 562.60 96.00C562.60 96.00 562.58 95.88 562.51 95.68C562.21 94.66 561.69 93.71 560.98 92.86C560.12 91.65 554.37 87.89 548.04 83.95C543.90 81.38 552.60 75.92 559.54 76.74C570.14 77.98 580.20 79.06 583.08 79.00C585.17 79.00 587.35 78.89 589.66 78.67C590.12 78.63 590.37 78.59 590.37 78.59C609.99 76.44 629.23 66.64 633.33 56.68L633.29 56.66Z"/><path fill="#FFFFFF" fill-rule="nonzero" d="M721.49 17.07L749.57 17.07L731.25 100.63C726.63 121.78 711.40 137.98 682.29 137.98C657.80 137.98 640.68 124.85 640.00 104.38L670.46 104.38C670.80 110.52 674.22 115.64 684.15 115.64C693.39 115.64 700.41 110.19 702.47 99.95L703.00 97.22C698.02 99.61 692.55 100.80 685.36 100.80C661.73 100.80 646.16 82.54 646.16 62.43C646.16 36.16 667.39 14.84 694.43 14.84C705.21 14.84 713.95 18.26 719.94 23.71L721.49 17.07M713.80 56.98C713.80 47.09 706.61 39.76 697.02 39.76C684.86 39.76 676.12 48.29 676.12 59.20C676.12 69.09 682.98 77.11 693.41 77.11C705.57 77.11 713.78 68.07 713.78 56.98L713.80 56.98Z"/><path fill="#FFFFFF" fill-rule="nonzero" d="M822.02 15.88L815.85 44.53L814.47 44.53C803.52 44.53 786.74 49.13 780.58 76.94L771.68 117.37L742.24 117.37L763.97 17.09L791.20 17.09L788.12 30.91C795.31 21.52 806.09 15.90 820.30 15.90L822.02 15.90L822.02 15.88Z"/><path fill="#FFFFFF" fill-rule="nonzero" d="M818.46 70.28C818.46 38.72 843.62 15.03 874.96 15.03C904.24 15.03 925.80 35.66 925.80 64.16C925.80 95.88 900.81 119.41 869.49 119.41C840.21 119.41 818.48 98.78 818.48 70.28L818.46 70.28M896.19 64.99C896.19 51.17 887.29 41.97 874.10 41.97C859.73 41.97 848.09 53.40 848.09 69.43C848.09 82.90 856.99 92.28 870.34 92.28C884.72 92.28 896.19 81.02 896.19 64.99Z"/><path fill="#FFFFFF" fill-rule="nonzero" d="M1005.40 17.07L1035.53 17.07L1013.79 117.35L988.45 117.35L989.99 110.87C984.17 116.00 976.64 119.41 965.34 119.41C947.87 119.41 933.16 106.96 933.16 84.62C933.16 80.71 933.49 76.44 934.54 72.01L946.51 17.09L976.64 17.09L964.48 74.05C964.15 76.09 963.79 77.96 963.79 79.67C963.79 87.68 968.24 92.64 976.46 92.64C983.48 92.64 989.98 88.37 992.04 78.65L1005.40 17.07Z"/><path fill="#FFFFFF" fill-rule="nonzero" d="M1149.54 62.45C1149.54 95.03 1125.23 119.41 1092.18 119.41C1080.37 119.41 1069.59 116.35 1062.21 109.35L1056.39 136.48L1026.09 136.48L1052.10 17.09L1078.64 17.09L1077.45 22.54C1085.16 17.42 1094.06 15.05 1103.63 15.05C1131.36 15.05 1149.52 37.39 1149.52 62.47L1149.54 62.45M1118.90 64.99C1118.90 51.17 1109.67 41.97 1095.96 41.97C1080.04 41.97 1069.42 54.94 1069.42 69.95C1069.42 83.77 1078.16 92.97 1092.36 92.97C1108.62 92.97 1118.90 79.67 1118.90 64.99Z"/><path fill="#FFFFFF" fill-rule="nonzero" d="M1182.69 67.16L1183.45 67.16C1196.93 67.42 1208.44 78.39 1208.98 91.88C1209.63 108.04 1195.01 120.63 1179.05 118.26C1167.77 116.57 1158.64 107.46 1157.17 96.16C1155.20 80.87 1167.34 67.39 1182.69 67.18L1182.69 67.16M1181.81 70.54C1170.49 71.06 1161.44 80.52 1160.90 91.69C1160.21 105.92 1173.13 117.68 1187.38 114.73C1195.98 112.95 1202.87 105.87 1204.64 97.33C1207.57 83.16 1196.34 69.89 1181.81 70.54Z"/><path fill="#FFFFFF" fill-rule="nonzero" d="M1195.44 107.02L1186.93 107.02L1183.32 97.03L1180.52 97.03L1180.52 107.02L1172.95 107.02L1172.95 77.27L1185.33 77.27C1192.42 77.20 1197.12 83.62 1194.96 90.37C1194.23 92.62 1192.69 94.49 1190.54 95.55L1195.42 107.02L1195.44 107.02M1180.52 90.17L1184.31 90.17C1188.18 90.06 1188.63 84.62 1184.47 84.36L1180.51 84.36L1180.51 90.17L1180.52 90.17Z"/></svg>