<svg xmlns="http://www.w3.org/2000/svg" viewBox="0 0 646 398"><path fill="#3B2CFF" fill-rule="nonzero" d="M118.03 250.05L140.82 140.22L173.69 140.22L150.90 250.05L118.03 250.05Z"/><path fill="#3B2CFF" fill-rule="nonzero" d="M215.61 168.62L206.83 210.27C204.96 219.05 208.51 221.48 217.29 221.48L227.75 221.48L221.59 250.05L206.46 250.05C187.41 250.05 168.73 239.59 174.89 210.46L182.55 174.59L188.72 146.21L193.89 121.55L225.69 121.55L221.59 140.23L243.26 140.23L237.09 168.62L215.61 168.62Z"/><path fill="#3B2CFF" fill-rule="nonzero" d="M338.13 140.23L371.00 140.23L347.28 250.05L318.33 250.05L319.63 244.07C311.23 249.67 301.70 252.29 291.43 252.29C260.43 252.29 240.63 229.88 240.63 200.55C240.63 164.51 267.52 137.98 304.50 137.98C316.63 137.98 328.22 141.35 336.25 149.00L338.11 140.22L338.13 140.23M328.04 191.97C328.04 177.03 317.58 166.94 303.58 166.94C286.21 166.94 273.88 180.95 273.88 197.39C273.88 211.96 283.41 222.79 298.53 222.79C316.09 222.79 328.04 208.22 328.04 191.97Z"/><path fill="#3B2CFF" fill-rule="nonzero" d="M453.00 138.93L446.27 170.30L444.78 170.30C432.83 170.30 414.53 175.35 407.80 205.79L398.09 250.06L365.97 250.06L389.69 140.24L419.39 140.24L416.02 155.36C423.87 145.09 435.64 138.93 451.13 138.93L453.00 138.93L453.00 138.93Z"/><path fill="#3B2CFF" fill-rule="nonzero" d="M94.25 140.22C82.27 184.90 57.18 207.00 39.97 214.93L57.73 140.22L24.26 140.22L0.00 250.09L20.34 250.09C23.64 250.09 101.30 248.89 127.00 144.12L127.84 140.22L94.26 140.22L94.25 140.22Z"/><path fill="#64DD6C" fill-rule="nonzero" d="M262.12 52.66C266.59 41.76 252.86 34.82 231.44 37.17C231.44 37.17 231.17 37.19 230.65 37.26C228.13 37.56 225.61 37.98 223.13 38.50C219.76 39.14 206.75 42.94 192.91 47.10C183.86 49.81 178.60 45.46 185.97 41.33C197.22 35.04 207.63 29.09 209.79 27.43C211.44 26.23 212.94 24.97 214.26 23.67C214.54 23.40 214.67 23.27 214.67 23.27C225.54 12.17 218.96 2.25 199.97 1.11C180.98 -0.02 156.77 8.05 145.90 19.15C145.90 19.15 145.75 19.29 145.51 19.56C144.28 20.86 143.29 22.15 142.53 23.40C141.38 25.12 139.62 31.59 137.98 38.46C136.90 42.96 124.15 46.24 121.13 42.80C116.51 37.54 111.98 32.69 110.17 31.74C108.93 31.00 107.47 30.34 105.78 29.79C105.43 29.68 105.25 29.62 105.25 29.62C90.55 25.11 65.49 29.72 49.28 39.93C33.07 50.14 31.85 62.06 46.55 66.57C46.55 66.57 46.72 66.63 47.09 66.74C48.85 67.24 50.75 67.62 52.76 67.88C55.43 68.30 67.35 68.50 80.17 68.58C88.56 68.64 85.94 75.03 76.71 77.03C62.60 80.07 49.39 83.03 46.12 84.10C43.69 84.84 41.28 85.69 38.92 86.65C38.43 86.85 38.19 86.95 38.19 86.95C18.23 95.26 9.33 108.03 18.29 115.47C27.26 122.92 50.72 122.21 70.68 113.90C70.68 113.90 70.92 113.80 71.40 113.59C73.72 112.60 75.89 111.55 77.89 110.45C80.69 108.99 89.82 102.65 99.38 95.83C105.64 91.38 116.76 92.04 114.08 96.72C109.98 103.86 106.35 110.53 106.13 112.15C105.88 113.35 105.85 114.53 106.08 115.68C106.12 115.91 106.15 116.03 106.15 116.03C108.52 125.68 128.07 128.95 149.83 123.35C171.59 117.75 187.30 105.39 184.94 95.74C184.94 95.74 184.92 95.62 184.84 95.39C184.51 94.27 183.95 93.24 183.18 92.30C182.24 90.99 175.96 86.87 169.05 82.56C164.53 79.75 174.03 73.77 181.60 74.66C193.17 76.03 204.15 77.20 207.29 77.13C209.55 77.13 211.95 77.01 214.45 76.75C214.97 76.71 215.23 76.67 215.23 76.67C236.65 74.33 257.64 63.58 262.11 52.68L262.12 52.66Z"/><path fill="#3B2CFF" fill-rule="nonzero" d="M117.08 265.55L147.71 265.55L127.72 357.09C122.68 380.25 106.05 398.00 74.30 398.00C47.59 398.00 28.91 383.62 28.16 361.20L61.41 361.20C61.79 367.93 65.52 373.53 76.36 373.53C86.44 373.53 94.10 367.56 96.34 356.35L96.90 353.36C91.48 355.97 85.51 357.28 77.66 357.28C51.88 357.28 34.89 337.29 34.89 315.25C34.89 286.48 58.05 263.13 87.56 263.13C99.33 263.13 108.86 266.87 115.40 272.84L117.08 265.56L117.08 265.55M108.68 309.27C108.68 298.44 100.83 290.40 90.37 290.40C77.10 290.40 67.58 299.74 67.58 311.70C67.58 322.54 75.05 331.31 86.44 331.31C99.71 331.31 108.67 321.41 108.67 309.27L108.68 309.27Z"/><path fill="#3B2CFF" fill-rule="nonzero" d="M226.76 264.25L220.03 295.64L218.54 295.64C206.59 295.64 188.28 300.68 181.56 331.13L171.84 375.40L139.71 375.40L163.43 265.56L193.13 265.56L189.77 280.69C197.62 270.42 209.38 264.25 224.89 264.25L226.76 264.25Z"/><path fill="#3B2CFF" fill-rule="nonzero" d="M222.88 323.84C222.88 289.28 250.34 263.32 284.52 263.32C316.47 263.32 340.00 285.92 340.00 317.12C340.00 351.86 312.73 377.64 278.55 377.64C246.60 377.64 222.88 355.04 222.88 323.84M307.69 318.04C307.69 302.92 297.97 292.82 283.59 292.82C267.90 292.82 255.20 305.34 255.20 322.90C255.20 337.66 264.91 347.93 279.48 347.93C295.17 347.93 307.69 335.60 307.69 318.04Z"/><path fill="#3B2CFF" fill-rule="nonzero" d="M426.84 265.55L459.72 265.55L436.00 375.40L408.35 375.40L410.03 368.30C403.68 373.90 395.46 377.63 383.13 377.63C364.08 377.63 348.02 364.00 348.02 339.53C348.02 335.23 348.39 330.56 349.51 325.70L362.59 265.55L395.46 265.55L382.20 327.95C381.82 330.19 381.45 332.24 381.45 334.11C381.45 342.89 386.31 348.31 395.28 348.31C402.93 348.31 410.03 343.64 412.27 333.00L426.84 265.56L426.84 265.55Z"/><path fill="#3B2CFF" fill-rule="nonzero" d="M584.13 315.25C584.13 350.93 557.61 377.64 521.56 377.64C508.67 377.64 496.91 374.28 488.87 366.62L482.52 396.32L449.45 396.32L477.85 265.56L506.80 265.56L505.49 271.54C513.90 265.94 523.61 263.32 534.07 263.32C564.33 263.32 584.13 287.80 584.13 315.25L584.13 315.25M550.70 318.04C550.70 302.92 540.61 292.83 525.67 292.83C508.30 292.83 496.72 307.03 496.72 323.46C496.72 338.58 506.24 348.68 521.75 348.68C539.49 348.68 550.70 334.11 550.70 318.04Z"/><path fill="#3B2CFF" fill-rule="nonzero" d="M616.28 320.41L617.10 320.40C631.81 320.71 644.38 332.70 644.97 347.47C645.69 365.18 629.73 378.96 612.31 376.36C599.99 374.52 590.03 364.54 588.44 352.15C586.29 335.40 599.54 320.63 616.28 320.40L616.28 320.41M615.32 324.10C602.96 324.67 593.10 335.03 592.51 347.27C591.76 362.86 605.86 375.75 621.40 372.50C630.79 370.55 638.32 362.80 640.24 353.44C643.43 337.91 631.17 323.38 615.33 324.10L615.32 324.10Z"/><path fill="#3B2CFF" fill-rule="nonzero" d="M630.19 364.06L620.91 364.06L616.96 353.13L613.92 353.13L613.92 364.06L605.65 364.06L605.65 331.48L619.16 331.48C626.90 331.40 632.02 338.43 629.66 345.84C628.87 348.31 627.18 350.36 624.85 351.51L630.18 364.06L630.19 364.06M613.92 345.62L618.06 345.62C622.28 345.50 622.77 339.55 618.25 339.26L613.92 339.26L613.92 345.62Z"/></svg>