<?xml version="1.0" encoding="UTF-8"?>
<svg xmlns="http://www.w3.org/2000/svg" ><symbol id="flower" viewBox="0 0 236 118"><path fill="currentColor" fill-rule="nonzero" d="M231.69 48.13C235.78 38.16 223.20 31.84 203.57 33.97C203.57 33.97 203.33 33.99 202.84 34.05C200.53 34.32 198.22 34.69 195.95 35.18C192.86 35.77 180.94 39.24 168.26 43.03C159.95 45.51 155.15 41.52 161.89 37.76C172.21 32.00 181.74 26.57 183.72 25.07C185.22 23.97 186.60 22.82 187.81 21.63C188.07 21.39 188.18 21.26 188.18 21.26C198.15 11.13 192.11 2.08 174.72 1.04C157.31 0.00 135.13 7.37 125.16 17.51C125.16 17.51 125.03 17.64 124.81 17.89C123.67 19.07 122.78 20.26 122.07 21.39C121.01 22.97 119.41 28.87 117.90 35.14C116.91 39.24 105.24 42.25 102.46 39.11C98.24 34.31 94.08 29.89 92.43 29.02C91.29 28.35 89.95 27.74 88.40 27.24C88.09 27.13 87.92 27.09 87.92 27.09C74.45 22.97 51.47 27.18 36.63 36.49C21.77 45.81 20.65 56.70 34.12 60.82C34.12 60.82 34.28 60.87 34.62 60.97C36.24 61.43 37.97 61.78 39.82 62.01C42.26 62.38 53.19 62.56 64.94 62.65C72.63 62.71 70.23 68.54 61.77 70.37C48.85 73.16 36.74 75.85 33.73 76.83C31.51 77.52 29.29 78.30 27.13 79.17C26.69 79.35 26.46 79.45 26.46 79.45C8.18 87.03 0.00 98.69 8.23 105.49C16.46 112.29 37.95 111.65 56.24 104.07C56.24 104.07 56.46 103.97 56.91 103.79C59.03 102.88 61.03 101.91 62.85 100.91C65.42 99.58 73.78 93.79 82.56 87.57C88.29 83.51 98.50 84.10 96.04 88.37C92.28 94.88 88.94 100.99 88.76 102.45C88.53 103.55 88.50 104.62 88.72 105.68C88.76 105.90 88.79 106.00 88.79 106.00C90.95 114.81 108.89 117.80 128.81 112.67C148.76 107.55 163.16 96.27 161.00 87.46C161.00 87.46 160.98 87.35 160.90 87.15C160.60 86.12 160.08 85.18 159.37 84.33C158.52 83.12 152.76 79.35 146.43 75.42C142.30 72.84 150.99 67.39 157.94 68.20C168.54 69.45 178.59 70.52 181.48 70.47C183.57 70.47 185.74 70.35 188.05 70.13C188.52 70.09 188.76 70.06 188.76 70.06C208.39 67.91 227.63 58.11 231.72 48.15L231.69 48.13Z"/></symbol><symbol id="flowerOutline" viewBox="-8 -8 252 134"><path fill="none" stroke="currentColor" stroke-width="6" stroke-linejoin="round" d="M231.69 48.13C235.78 38.16 223.20 31.84 203.57 33.97C203.57 33.97 203.33 33.99 202.84 34.05C200.53 34.32 198.22 34.69 195.95 35.18C192.86 35.77 180.94 39.24 168.26 43.03C159.95 45.51 155.15 41.52 161.89 37.76C172.21 32.00 181.74 26.57 183.72 25.07C185.22 23.97 186.60 22.82 187.81 21.63C188.07 21.39 188.18 21.26 188.18 21.26C198.15 11.13 192.11 2.08 174.72 1.04C157.31 0.00 135.13 7.37 125.16 17.51C125.16 17.51 125.03 17.64 124.81 17.89C123.67 19.07 122.78 20.26 122.07 21.39C121.01 22.97 119.41 28.87 117.90 35.14C116.91 39.24 105.24 42.25 102.46 39.11C98.24 34.31 94.08 29.89 92.43 29.02C91.29 28.35 89.95 27.74 88.40 27.24C88.09 27.13 87.92 27.09 87.92 27.09C74.45 22.97 51.47 27.18 36.63 36.49C21.77 45.81 20.65 56.70 34.12 60.82C34.12 60.82 34.28 60.87 34.62 60.97C36.24 61.43 37.97 61.78 39.82 62.01C42.26 62.38 53.19 62.56 64.94 62.65C72.63 62.71 70.23 68.54 61.77 70.37C48.85 73.16 36.74 75.85 33.73 76.83C31.51 77.52 29.29 78.30 27.13 79.17C26.69 79.35 26.46 79.45 26.46 79.45C8.18 87.03 0.00 98.69 8.23 105.49C16.46 112.29 37.95 111.65 56.24 104.07C56.24 104.07 56.46 103.97 56.91 103.79C59.03 102.88 61.03 101.91 62.85 100.91C65.42 99.58 73.78 93.79 82.56 87.57C88.29 83.51 98.50 84.10 96.04 88.37C92.28 94.88 88.94 100.99 88.76 102.45C88.53 103.55 88.50 104.62 88.72 105.68C88.76 105.90 88.79 106.00 88.79 106.00C90.95 114.81 108.89 117.80 128.81 112.67C148.76 107.55 163.16 96.27 161.00 87.46C161.00 87.46 160.98 87.35 160.90 87.15C160.60 86.12 160.08 85.18 159.37 84.33C158.52 83.12 152.76 79.35 146.43 75.42C142.30 72.84 150.99 67.39 157.94 68.20C168.54 69.45 178.59 70.52 181.48 70.47C183.57 70.47 185.74 70.35 188.05 70.13C188.52 70.09 188.76 70.06 188.76 70.06C208.39 67.91 227.63 58.11 231.72 48.15L231.69 48.13Z"/></symbol><symbol id="blobA" viewBox="0 0 520 420"><path fill="currentColor" d="M294.8 96.1 C294.6 89.5 292.5 84.0 290.2 78.9 C287.9 73.7 284.7 69.3 281.0 65.1 C277.2 60.8 273.0 57.0 267.6 53.6 C262.2 50.2 255.4 46.8 248.7 44.6 C242.0 42.3 234.2 40.9 227.4 40.3 C220.5 39.7 214.5 39.8 207.8 40.8 C201.0 41.8 193.0 43.8 186.8 46.2 C180.6 48.5 176.4 50.0 170.5 54.9 C164.7 59.7 155.9 67.7 151.7 75.2 C147.4 82.8 145.0 91.7 145.0 100.0 C145.0 108.3 147.3 117.1 151.7 124.8 C156.1 132.4 170.5 140.0 171.6 145.8 C172.6 151.6 162.2 154.4 158.1 159.8 C154.0 165.3 153.2 175.8 146.9 178.3 C140.5 180.9 128.6 175.1 120.0 175.0 C111.4 174.9 103.2 176.0 95.3 177.8 C87.5 179.6 79.9 182.2 72.8 186.0 C65.6 189.7 58.0 195.2 52.6 200.4 C47.2 205.6 43.3 211.6 40.4 217.1 C37.6 222.6 36.0 227.7 35.4 233.6 C34.8 239.6 35.0 246.5 36.6 252.7 C38.2 258.8 41.5 265.3 45.0 270.6 C48.6 275.9 53.3 280.5 58.0 284.4 C62.6 288.3 64.3 290.7 72.8 294.0 C81.3 297.4 96.0 303.3 108.9 304.4 C121.8 305.6 140.2 302.6 149.9 300.8 C159.7 299.1 161.6 297.0 167.2 294.0 C172.8 291.1 176.3 282.8 183.5 283.2 C190.7 283.6 201.0 293.1 210.5 296.5 C219.9 299.9 234.2 299.3 240.2 303.7 C246.1 308.1 242.8 317.0 246.1 323.0 C249.4 328.9 254.2 334.7 259.9 339.6 C265.5 344.4 272.1 348.7 280.0 352.0 C287.9 355.2 299.0 357.9 307.0 359.2 C314.9 360.5 321.0 360.2 327.8 359.7 C334.7 359.2 340.7 358.6 348.2 356.2 C355.7 353.7 365.6 349.9 372.7 345.1 C379.9 340.3 383.0 330.1 391.1 327.5 C399.3 324.8 412.2 330.5 421.7 329.0 C431.2 327.6 440.7 323.9 448.1 318.7 C455.5 313.4 462.5 303.2 466.2 297.6 C469.8 292.0 469.2 289.2 469.7 284.9 C470.2 280.6 471.4 278.0 469.2 271.9 C467.0 265.8 463.0 254.8 456.4 248.3 C449.8 241.8 429.6 238.2 429.8 232.8 C430.0 227.4 450.1 222.9 457.7 216.2 C465.2 209.4 471.6 199.0 475.2 192.5 C478.9 186.0 478.8 181.8 479.6 176.9 C480.3 172.0 481.3 169.8 479.6 163.1 C477.9 156.5 473.0 143.6 469.4 137.0 C465.7 130.5 462.6 128.0 457.7 123.8 C452.8 119.6 446.0 115.0 440.0 111.8 C434.0 108.6 428.6 106.4 421.7 104.5 C414.8 102.6 406.5 100.9 398.8 100.3 C391.1 99.7 382.5 100.1 375.3 100.9 C368.1 101.8 362.2 103.1 355.6 105.3 C348.9 107.6 341.3 110.8 335.2 114.5 C329.1 118.1 326.1 126.6 318.8 127.2 C311.5 127.8 295.4 123.5 291.4 118.3 C287.4 113.1 295.0 102.7 294.8 96.1 Z"/></symbol><symbol id="blobB" viewBox="0 0 360 440"><path fill="currentColor" d="M284.9 96.7 C284.2 91.2 282.4 83.6 279.3 77.9 C276.2 72.2 271.3 66.5 266.3 62.4 C261.3 58.3 255.7 55.3 249.4 53.2 C243.0 51.1 235.2 49.8 228.2 50.0 C221.2 50.2 213.7 51.8 207.3 54.5 C200.9 57.1 194.7 61.2 189.9 65.8 C185.1 70.5 181.0 76.7 178.5 82.4 C176.0 88.1 179.3 96.3 175.0 100.2 C170.7 104.1 158.1 107.1 152.5 105.8 C146.9 104.4 145.2 95.9 141.2 92.0 C137.3 88.2 135.6 85.6 128.7 82.7 C121.9 79.9 109.3 75.2 100.0 75.0 C90.7 74.8 81.3 77.4 73.2 81.7 C65.0 85.9 56.4 94.7 51.1 100.5 C45.9 106.4 44.2 111.0 41.7 116.8 C39.2 122.6 37.3 129.0 36.2 135.4 C35.2 141.7 34.8 148.4 35.1 154.9 C35.5 161.4 36.6 168.0 38.4 174.1 C40.3 180.2 42.6 186.0 46.0 191.7 C49.3 197.3 54.2 203.5 58.8 208.0 C63.3 212.4 68.0 215.6 73.2 218.3 C78.4 221.0 86.6 218.0 90.1 224.1 C93.5 230.2 91.7 245.2 93.9 254.8 C96.0 264.5 105.9 275.2 103.0 282.1 C100.0 288.9 83.1 289.7 76.2 295.8 C69.3 301.9 64.3 312.7 61.6 318.6 C58.9 324.6 59.9 327.3 60.0 331.6 C60.2 335.9 59.4 338.7 62.6 344.5 C65.7 350.3 71.7 360.8 79.0 366.5 C86.3 372.2 96.6 376.8 106.4 378.7 C116.1 380.6 127.8 380.3 137.4 377.8 C147.0 375.4 157.9 368.2 163.8 364.2 C169.7 360.1 170.4 357.6 172.9 353.6 C175.4 349.5 176.1 342.3 178.8 340.0 C181.5 337.6 185.1 337.1 189.0 339.4 C192.9 341.7 197.1 349.7 202.1 353.8 C207.2 357.9 213.0 361.2 219.0 363.8 C225.1 366.4 231.9 368.3 238.6 369.2 C245.3 370.1 251.1 370.9 259.1 369.5 C267.2 368.1 278.8 365.3 287.0 361.0 C295.1 356.6 302.9 350.2 308.2 343.3 C313.6 336.5 317.4 327.6 319.1 319.8 C320.7 311.9 319.6 303.0 318.2 296.4 C316.8 289.7 313.7 284.8 310.6 280.0 C307.5 275.2 303.8 271.2 299.5 267.6 C295.2 263.9 290.5 260.7 285.0 258.0 C279.5 255.4 269.3 257.4 266.8 251.8 C264.3 246.1 269.7 233.1 270.0 223.9 C270.2 214.7 269.6 205.5 268.3 196.6 C266.9 187.7 264.9 178.9 262.0 170.5 C259.1 162.1 250.5 151.5 251.0 146.2 C251.5 140.9 260.6 142.0 264.9 138.7 C269.2 135.3 273.6 131.0 276.7 126.4 C279.8 121.9 282.2 116.3 283.6 111.4 C284.9 106.4 285.6 102.3 284.9 96.7 Z"/></symbol><symbol id="check" viewBox="0 0 24 24"><path fill="none" stroke="currentColor" stroke-width="2.4" stroke-linecap="round" stroke-linejoin="round" d="M4 12.5l5 5L20 7"/></symbol><symbol id="arrow" viewBox="0 0 24 24"><path fill="none" stroke="currentColor" stroke-width="2.4" stroke-linecap="round" stroke-linejoin="round" d="M4 12h15M13 6l6 6-6 6"/></symbol><symbol id="factory" viewBox="0 0 24 24"><path fill="none" stroke="currentColor" stroke-width="1.9" stroke-linecap="round" stroke-linejoin="round" d="M3 21V9l6 4V9l6 4V4h6v17H3zM7.5 17h2M12.5 17h2M17.5 17h2"/></symbol><symbol id="flask" viewBox="0 0 24 24"><path fill="none" stroke="currentColor" stroke-width="1.9" stroke-linecap="round" stroke-linejoin="round" d="M9 3h6M10 3v6L4.5 18.5A2 2 0 0 0 6.3 21h11.4a2 2 0 0 0 1.8-2.5L14 9V3M7.5 15h9"/></symbol><symbol id="people" viewBox="0 0 24 24"><path fill="none" stroke="currentColor" stroke-width="1.9" stroke-linecap="round" stroke-linejoin="round" d="M9 11a3.5 3.5 0 1 0 0-7 3.5 3.5 0 0 0 0 7zM2.5 20a6.5 6.5 0 0 1 13 0M16 4.6a3.5 3.5 0 0 1 0 6.8M17.5 14.4A6.5 6.5 0 0 1 21.5 20"/></symbol><symbol id="globe" viewBox="0 0 24 24"><path fill="none" stroke="currentColor" stroke-width="1.9" stroke-linecap="round" stroke-linejoin="round" d="M12 21a9 9 0 1 0 0-18 9 9 0 0 0 0 18zM3 12h18M12 3c2.5 2.6 3.8 5.7 3.8 9S14.5 18.4 12 21c-2.5-2.6-3.8-5.7-3.8-9S9.5 5.6 12 3z"/></symbol><symbol id="leaf" viewBox="0 0 24 24"><path fill="none" stroke="currentColor" stroke-width="1.9" stroke-linecap="round" stroke-linejoin="round" d="M5 19C5 9 11 4 20 4c0 9-4 15-13 15h-2zM5 19c2-5 5-8 9-10"/></symbol><symbol id="pin" viewBox="0 0 24 24"><path fill="none" stroke="currentColor" stroke-width="1.9" stroke-linecap="round" stroke-linejoin="round" d="M12 21s-7-5.5-7-11a7 7 0 0 1 14 0c0 5.5-7 11-7 11zM12 12.5a2.5 2.5 0 1 0 0-5 2.5 2.5 0 0 0 0 5z"/></symbol><symbol id="mail" viewBox="0 0 24 24"><path fill="none" stroke="currentColor" stroke-width="1.9" stroke-linecap="round" stroke-linejoin="round" d="M3.5 5.5h17v13h-17zM4 6.5l8 6.5 8-6.5"/></symbol><symbol id="phone" viewBox="0 0 24 24"><path fill="none" stroke="currentColor" stroke-width="1.9" stroke-linecap="round" stroke-linejoin="round" d="M5.5 3.5h4l1.5 5-2.5 2a13 13 0 0 0 5 5l2-2.5 5 1.5v4a2 2 0 0 1-2.2 2A17.5 17.5 0 0 1 3.5 5.7a2 2 0 0 1 2-2.2z"/></symbol><symbol id="box" viewBox="0 0 24 24"><path fill="none" stroke="currentColor" stroke-width="1.9" stroke-linecap="round" stroke-linejoin="round" d="M12 3l8.5 4.5v9L12 21l-8.5-4.5v-9L12 3zM3.5 7.5L12 12l8.5-4.5M12 12v9"/></symbol><symbol id="spark" viewBox="0 0 24 24"><path fill="none" stroke="currentColor" stroke-width="1.9" stroke-linecap="round" stroke-linejoin="round" d="M12 3v4M12 17v4M3 12h4M17 12h4M5.6 5.6l2.8 2.8M15.6 15.6l2.8 2.8M18.4 5.6l-2.8 2.8M8.4 15.6l-2.8 2.8"/></symbol><symbol id="heart" viewBox="0 0 24 24"><path fill="none" stroke="currentColor" stroke-width="1.9" stroke-linecap="round" stroke-linejoin="round" d="M12 20.5S3.5 15 3.5 9.3A4.6 4.6 0 0 1 8.1 4.7c1.6 0 3.1.8 3.9 2.1a4.7 4.7 0 0 1 3.9-2.1 4.6 4.6 0 0 1 4.6 4.6c0 5.7-8.5 11.2-8.5 11.2z"/></symbol></svg>